<?xml version="1.0" encoding="utf-8"?>
<!-- Generator: Adobe Illustrator 25.4.1, SVG Export Plug-In . SVG Version: 6.00 Build 0)  -->
<svg version="1.1" id="Layer_1" xmlns="http://www.w3.org/2000/svg" xmlns:xlink="http://www.w3.org/1999/xlink" x="0px" y="0px"
	 viewBox="0 0 143.69 28.54" style="enable-background:new 0 0 143.69 28.54;" xml:space="preserve">
<style type="text/css">
	.st0{fill:#00273C;}
	.st1{fill:none;}
	.st2{fill:#00DA94;stroke:#231F20;stroke-miterlimit:10;}
	.st3{fill:#FFFFFF;}
	.st4{fill:url(#SVGID_1_);}
	.st5{fill-rule:evenodd;clip-rule:evenodd;fill:#00DA94;}
	.st6{fill:#00DA94;}
	.st7{fill:url(#SVGID_00000009575830700563809430000012003532364773071510_);}
	.st8{clip-path:url(#SVGID_00000111156947283877163820000001709772905557179302_);fill:#00273C;}
	.st9{clip-path:url(#SVGID_00000111156947283877163820000001709772905557179302_);fill:#00DA94;}
	.st10{opacity:0.75;}
	.st11{fill:none;stroke:#00DA94;stroke-width:0.25;stroke-miterlimit:10;}
	.st12{fill:none;stroke:#FFFFFF;stroke-width:2.5;stroke-linecap:round;stroke-linejoin:round;stroke-miterlimit:10;}
	.st13{fill:none;stroke:#FFFFFF;stroke-linecap:round;stroke-linejoin:round;stroke-miterlimit:10;}
	.st14{fill:url(#SVGID_00000178911640380921290360000014488218684925687170_);}
	.st15{clip-path:url(#SVGID_00000096772277627380676210000017382605837425287870_);fill:#00273C;}
	.st16{clip-path:url(#SVGID_00000096772277627380676210000017382605837425287870_);fill:#00DA94;}
	.st17{clip-path:url(#SVGID_00000111869605953118785220000016219065969499448225_);fill:#00273C;}
	.st18{clip-path:url(#SVGID_00000111869605953118785220000016219065969499448225_);fill:#00DA94;}
	.st19{fill:#E5F5F3;stroke:#009984;stroke-width:0.5;stroke-miterlimit:10;}
	.st20{fill:#009984;}
	.st21{fill:url(#SVGID_00000173881668894626656110000000767655919352582557_);}
	.st22{clip-path:url(#SVGID_00000174575225286620795050000009414146919614061713_);fill:#00273C;}
	.st23{clip-path:url(#SVGID_00000174575225286620795050000009414146919614061713_);fill:#00DA94;}
	.st24{fill:url(#SVGID_00000031166415945822208410000017441762158501110193_);}
	.st25{clip-path:url(#SVGID_00000170980373082043515110000009652151236550784403_);fill:#00273C;}
	.st26{clip-path:url(#SVGID_00000170980373082043515110000009652151236550784403_);fill:#00DA94;}
	.st27{fill:url(#SVGID_00000013891427373368443860000016527345828383170215_);}
	.st28{fill:url(#SVGID_00000092429721826570167900000016260462469011232435_);}
	.st29{clip-path:url(#SVGID_00000062909342456495435810000012708887302123213750_);fill:#00273C;}
	.st30{clip-path:url(#SVGID_00000062909342456495435810000012708887302123213750_);fill:#00DA94;}
	.st31{fill:#034159;}
	.st32{fill:#3B444A;}
	.st33{fill:#025951;}
	.st34{fill:#02735E;}
	.st35{fill:#038C3E;}
	.st36{fill:#0CF25D;}
</style>
<g>
	<g>
		<path class="st0" d="M9.66,27.81c-0.87,0-2.52-0.14-3.66-1.1c-0.71-0.6-1.11-1.43-1.18-2.45c-0.23-3.49-3.09-8.8-3.12-8.85
			c-3.04-5.94,1.04-9.48,1.84-10.1C4.3,2.57,6.62,1.02,6.72,0.95l0.32-0.21L8.04,2.1h2.17v0.82H7.63L6.86,1.87
			C6.22,2.38,4.78,3.71,4.29,5.65L4.25,5.81L4.12,5.89c-0.19,0.13-4.71,3.27-1.7,9.14c0.12,0.21,2.97,5.5,3.22,9.18
			c0.05,0.8,0.34,1.41,0.89,1.87c1.31,1.11,3.62,0.89,3.65,0.89l0.08,0.81C10.22,27.79,10,27.81,9.66,27.81z"/>
		<path class="st0" d="M10.76,27.8c-0.34,0-0.56-0.02-0.59-0.02l0.08-0.81c0.02,0,2.34,0.22,3.65-0.89
			c0.54-0.46,0.84-1.07,0.89-1.87c0.25-3.67,3.1-8.96,3.22-9.19c3-5.86-1.51-9-1.71-9.13L16.17,5.8l-0.04-0.15
			c-0.49-1.95-1.93-3.28-2.57-3.79l-0.77,1.05h-2.58V2.1h2.17l0.99-1.36l0.32,0.21c0.1,0.07,2.43,1.61,3.19,4.36
			c0.8,0.62,4.88,4.15,1.84,10.09c-0.03,0.06-2.89,5.37-3.13,8.86c-0.07,1.02-0.46,1.84-1.18,2.45
			C13.28,27.66,11.63,27.8,10.76,27.8z"/>
	</g>
	<path class="st0" d="M12.16,14.32c-0.81,0.65-2.1,0.68-2.93-0.04c-0.43-0.36-0.53-1.08-0.17-1.55c0.33-0.48,0.95-0.69,1.5-0.6
		c0.28,0.04,0.56,0.15,0.79,0.35c0.23,0.2,0.37,0.57,0.26,0.9c-0.1,0.32-0.37,0.55-0.67,0.64c-0.3,0.08-0.63,0.05-0.91-0.11
		c-0.13-0.08-0.27-0.21-0.33-0.39C9.63,13.35,9.67,13.14,9.77,13c0.2-0.29,0.59-0.38,0.88-0.25c0.14,0.06,0.3,0.17,0.33,0.37
		c0.03,0.19-0.09,0.36-0.24,0.42c-0.15,0.06-0.32,0.04-0.44-0.04c-0.15-0.07-0.16-0.31-0.02-0.38l0.03,0.03
		c-0.1,0.09-0.05,0.22,0.05,0.25c0.1,0.04,0.22,0.03,0.3-0.02c0.18-0.12,0.1-0.31-0.1-0.36c-0.19-0.05-0.41,0.02-0.49,0.17
		c-0.08,0.14-0.01,0.29,0.16,0.38c0.35,0.2,0.87,0.05,0.99-0.31c0.15-0.35-0.27-0.73-0.72-0.8c-0.45-0.09-0.96,0.06-1.24,0.44
		c-0.3,0.36-0.25,0.91,0.1,1.24c0.7,0.68,1.94,0.75,2.76,0.15L12.16,14.32z"/>
	<g>
		<path class="st0" d="M5.7,14.49c-0.19,0.91,0,1.87,0.47,2.62c0.25,0.37,0.57,0.68,0.9,0.98c0.32,0.32,0.7,0.57,1.06,0.89
			l-0.02,0.04c-0.23-0.06-0.46-0.14-0.68-0.23c-0.21-0.12-0.43-0.23-0.62-0.37c-0.4-0.29-0.69-0.7-0.92-1.13
			c-0.46-0.87-0.53-1.9-0.23-2.8L5.7,14.49z"/>
		<path class="st0" d="M6.63,14.49c-0.04,0.78,0.1,1.59,0.49,2.21c0.2,0.32,0.5,0.53,0.79,0.72c0.29,0.22,0.66,0.31,1.03,0.48
			l0,0.04c-0.4,0.06-0.84,0.03-1.23-0.16c-0.39-0.18-0.7-0.53-0.88-0.91c-0.38-0.76-0.4-1.61-0.25-2.38L6.63,14.49z"/>
		<path class="st0" d="M7.03,14.84c0.14,0.46,0.38,0.9,0.69,1.23c0.16,0.17,0.36,0.26,0.53,0.39c0.17,0.15,0.38,0.22,0.6,0.37
			l0,0.04c-0.26,0.08-0.54,0.06-0.79-0.05c-0.25-0.11-0.44-0.33-0.59-0.54c-0.3-0.43-0.45-0.93-0.48-1.43L7.03,14.84z"/>
	</g>
	<g>
		<path class="st0" d="M9.57,21.46c-0.6,0.08-1.1,0.45-1.43,0.91c-0.17,0.23-0.26,0.51-0.4,0.75c-0.15,0.25-0.26,0.52-0.44,0.79
			L7.26,23.9c-0.04-0.32,0.02-0.63,0.11-0.94c0.11-0.3,0.3-0.57,0.53-0.8c0.43-0.47,1.06-0.78,1.68-0.74L9.57,21.46z"/>
		<path class="st0" d="M8.75,20.81c-0.46,0.07-0.85,0.36-1.1,0.7c-0.13,0.18-0.19,0.39-0.31,0.57c-0.12,0.19-0.22,0.39-0.39,0.59
			l-0.04-0.01c-0.06-0.26-0.01-0.5,0.06-0.75c0.08-0.24,0.25-0.44,0.44-0.62c0.36-0.36,0.86-0.58,1.35-0.53L8.75,20.81z"/>
		<path class="st0" d="M8.43,20.2c-0.42,0.07-0.8,0.28-1.06,0.56c-0.13,0.15-0.22,0.32-0.33,0.47c-0.13,0.15-0.23,0.32-0.4,0.49
			l-0.04-0.01c-0.05-0.24,0-0.47,0.09-0.69c0.09-0.22,0.29-0.38,0.47-0.51c0.38-0.28,0.84-0.4,1.28-0.35L8.43,20.2z"/>
		<path class="st0" d="M7.84,19.75c-0.28,0.07-0.52,0.22-0.69,0.42c-0.08,0.11-0.12,0.22-0.2,0.32c-0.1,0.09-0.17,0.2-0.32,0.31
			l-0.04-0.01c-0.07-0.17-0.04-0.34,0.01-0.5c0.06-0.16,0.21-0.27,0.34-0.36c0.27-0.19,0.6-0.27,0.9-0.21L7.84,19.75z"/>
		<path class="st0" d="M10.85,21.42c0.62-0.04,1.25,0.27,1.68,0.74c0.23,0.23,0.42,0.5,0.53,0.8c0.09,0.31,0.15,0.62,0.11,0.94
			l-0.04,0.01c-0.18-0.27-0.29-0.54-0.44-0.79c-0.14-0.25-0.23-0.52-0.4-0.75c-0.33-0.46-0.83-0.83-1.43-0.91L10.85,21.42z"/>
		<path class="st0" d="M11.66,20.77c0.49-0.05,0.99,0.17,1.35,0.53c0.18,0.17,0.35,0.38,0.44,0.62c0.07,0.24,0.11,0.49,0.06,0.75
			l-0.04,0.01c-0.17-0.2-0.26-0.4-0.39-0.59c-0.12-0.18-0.18-0.39-0.31-0.57c-0.25-0.34-0.64-0.63-1.1-0.7L11.66,20.77z"/>
		<path class="st0" d="M11.99,20.16c0.44-0.05,0.9,0.07,1.28,0.35c0.18,0.14,0.38,0.29,0.47,0.51c0.09,0.22,0.14,0.45,0.09,0.69
			l-0.04,0.01c-0.18-0.17-0.27-0.34-0.4-0.49c-0.11-0.16-0.2-0.32-0.33-0.47c-0.27-0.28-0.65-0.49-1.06-0.56L11.99,20.16z"/>
		<path class="st0" d="M12.57,19.71c0.3-0.05,0.63,0.02,0.9,0.21c0.13,0.09,0.28,0.2,0.34,0.36c0.05,0.16,0.08,0.33,0.01,0.5
			l-0.04,0.01c-0.15-0.11-0.23-0.22-0.32-0.31c-0.08-0.1-0.12-0.21-0.2-0.32c-0.16-0.19-0.41-0.35-0.69-0.42L12.57,19.71z"/>
	</g>
	<g>
		<path class="st0" d="M7.88,8.6c0,0-2.26,0.45-3.21,1.35c0,0,0.8-6.52,1.79-6.66S7.88,8.6,7.88,8.6z"/>
		<path class="st0" d="M4.06,12.16c0,0,0.94,2.55,3.21,1.42C7.28,13.59,5.99,10.13,4.06,12.16z"/>
		<path class="st0" d="M3.17,15.57l1.05,1.65c0.11,0.17,0.18,0.35,0.21,0.55c0.04,0.26,0.12,0.63,0.24,0.77
			c0.19,0.22-0.01,1.03,0.66,1.31c0,0-0.25,0.76,0.14,1.35c0.12,0.19,0.2,0.4,0.23,0.62c0.04,0.36,0.15,0.89,0.44,1.23
			c0,0-0.31,0.69,0.19,1.36c0.23,0.3,0.34,0.66,0.32,1.04c-0.03,0.43,0.16,0.96,1.2,1.09c0,0-1-0.79-1.38-3.75
			c-0.33-2.62-0.87-4.32-0.99-4.67c-0.02-0.05-0.03-0.09-0.05-0.13l-1.1-2.45c-0.1-0.23-0.27-0.43-0.48-0.58l-0.31-0.22l-0.4,0.28
			L3.17,15.57z"/>
		<path class="st0" d="M12.53,8.59c0,0,2.26,0.45,3.21,1.35c0,0-0.8-6.52-1.79-6.66S12.53,8.59,12.53,8.59z"/>
		<path class="st0" d="M16.35,12.16c0,0-0.94,2.55-3.21,1.42C13.14,13.58,14.42,10.13,16.35,12.16z"/>
		<path class="st0" d="M17.15,15.57l-1.13,1.91c0,0-0.09,0.83-0.28,1.05c-0.19,0.22,0.01,1.03-0.66,1.31c0,0,0.32,0.98-0.34,1.59
			c0,0,0,1.06-0.46,1.62c0,0,0.46,1.04-0.68,1.81c0,0,0.8,1.45-1.03,1.69c0,0,1-0.79,1.38-3.75s1.01-4.74,1.01-4.74l0.98-2.16
			c0.21-0.46,0.53-0.86,0.94-1.15v0l0.4,0.28L17.15,15.57z"/>
	</g>
	<g>
		<path class="st0" d="M14.76,14.47c0.3,0.89,0.23,1.93-0.23,2.8c-0.23,0.43-0.52,0.84-0.92,1.13c-0.19,0.15-0.41,0.26-0.62,0.37
			c-0.22,0.09-0.45,0.17-0.68,0.23l-0.02-0.04c0.36-0.32,0.74-0.57,1.06-0.89c0.33-0.3,0.65-0.61,0.9-0.98
			c0.48-0.75,0.66-1.71,0.47-2.62L14.76,14.47z"/>
		<path class="st0" d="M13.83,14.48c0.15,0.78,0.13,1.62-0.25,2.38c-0.18,0.38-0.49,0.73-0.88,0.91c-0.39,0.19-0.83,0.23-1.23,0.16
			l0-0.04c0.38-0.17,0.74-0.26,1.03-0.48c0.3-0.19,0.59-0.4,0.79-0.72c0.39-0.63,0.53-1.44,0.49-2.21L13.83,14.48z"/>
		<path class="st0" d="M13.42,14.84c-0.03,0.5-0.18,0.99-0.48,1.43c-0.14,0.22-0.33,0.43-0.59,0.54c-0.25,0.11-0.54,0.13-0.79,0.05
			l0-0.04c0.22-0.15,0.43-0.22,0.6-0.37c0.17-0.13,0.37-0.23,0.53-0.39c0.31-0.33,0.55-0.76,0.69-1.23L13.42,14.84z"/>
	</g>
	<ellipse class="st0" cx="10.19" cy="25.32" rx="1.62" ry="0.72"/>
</g>
<g>
	<g>
		<path class="st0" d="M29.47,19.64c0,1.47,0,2.84,0,4.22c0,0.64-0.04,1.26-0.35,1.85c-0.15,0.29-0.22,0.59-0.63,0.59
			c-0.43-0.01-0.83-0.07-1.13-0.46c-0.54-0.71-0.81-1.51-0.99-2.37c-0.79-3.73-0.88-7.51-0.83-11.29c0.03-2.35,0.04-4.7,0.29-7.04
			c0.02-0.18,0.05-0.35,0.07-0.52c0.15-1.28,0.85-1.51,2.01-1.18c1.71,0.48,3.4,1.04,5.1,1.57c1.4,0.43,2.81,0.86,4.14,1.47
			c0.06,0.03,0.13,0.06,0.19,0.09c1.96,1.01,1.99,1.91,0.84,3.4c-2.04,2.66-4.37,5.04-6.83,7.31c-0.14,0.13-0.29,0.25-0.46,0.4
			c0.95,0.66,1.87,1.29,2.79,1.95c1.81,1.31,3.57,2.66,5.02,4.39c0.28,0.34,0.59,0.67,0.62,1.15c0.01,0.16,0.11,0.2,0.23,0.25
			c0.16,0.07,0.35,0.12,0.31,0.36c-0.04,0.21-0.17,0.35-0.37,0.42c-0.55,0.21-1.09,0.09-1.59-0.15c-1.24-0.58-2.4-1.27-3.4-2.22
			c-1.49-1.41-3.05-2.74-4.7-3.96C29.72,19.81,29.63,19.75,29.47,19.64z M29.39,14.63c0.44-0.42,0.82-0.77,1.18-1.15
			c1.42-1.5,2.81-3.02,3.97-4.74c0.48-0.72,0.41-0.94-0.35-1.29c-1.68-0.78-3.49-1.2-5.24-2.06C29.29,8.49,29.31,11.53,29.39,14.63z
			"/>
		<path class="st0" d="M47.77,3.13c0.89-0.1,1.56,0.27,2.17,0.89c2.23,2.27,4.47,4.52,6.71,6.78c0.31,0.31,0.63,0.62,0.96,0.91
			c0.72,0.64,0.79,1.04,0.3,1.9c-0.53,0.92-1.07,1.83-1.6,2.75c-1.2,2.08-2.35,4.19-3.75,6.15c-0.53,0.74-1.02,1.54-1.9,1.95
			c-0.1,0.05-0.16,0.12-0.19,0.24c-0.17,0.65-0.46,0.83-1.12,0.76c-0.78-0.08-1.46-0.36-2.08-0.84c-1.86-1.42-3.46-3.12-5.1-4.77
			c-0.82-0.83-1.62-1.67-2.35-2.58c-0.75-0.94-0.81-1.85-0.23-2.93c1.74-3.24,3.68-6.35,5.66-9.44c0.17-0.27,0.36-0.52,0.55-0.78
			C46.28,3.41,46.9,3,47.77,3.13z M41.95,15.71c0.01,0.42,0.29,0.65,0.54,0.9c2.07,1.97,4.3,3.78,6.26,5.88
			c0.18,0.2,0.26,0.15,0.36-0.08c0.16-0.39,0.34-0.78,0.54-1.15c1.42-2.67,2.96-5.27,4.32-7.96c0.53-1.04,0.59-0.81-0.21-1.66
			c-1.9-2-3.93-3.86-5.58-6.09c-0.15-0.21-0.23-0.14-0.33,0.04c-0.3,0.54-0.6,1.08-0.9,1.62c-1.4,2.54-2.91,5-4.52,7.42
			C42.2,14.96,42.02,15.32,41.95,15.71z"/>
		<path class="st0" d="M64.13,16.56c0,2.43,0.12,4.38-0.01,6.32c-0.02,0.38,0.19,0.3,0.39,0.28c1.42-0.15,2.85-0.33,4.28-0.38
			c1.39-0.05,2.79-0.16,4.18,0.05c0.3,0.05,0.58,0.15,0.84,0.31c0.17,0.1,0.33,0.22,0.33,0.44c0,0.23-0.18,0.33-0.37,0.41
			c-0.31,0.13-0.64,0.21-0.97,0.23c-2.31,0.2-4.62,0.35-6.91,0.73c-1.9,0.32-3.79,0.66-5.69,1.01c-0.45,0.08-0.88,0.06-1.29-0.14
			c-0.26-0.13-0.53-0.28-0.55-0.59c-0.02-0.35,0.24-0.54,0.51-0.68c0.61-0.32,1.26-0.57,1.93-0.71c0.47-0.1,0.46-0.24,0.31-0.65
			c-0.48-1.38-0.55-2.84-0.67-4.28c-0.27-3.35-0.1-6.72-0.16-10.07c-0.02-0.85-0.03-1.7-0.03-2.55c0-0.64,0.19-0.81,0.82-0.87
			c1.31-0.12,2.04,0.4,2.33,1.69c0.33,1.47,0.44,2.97,0.52,4.47C64.04,13.41,64.08,15.23,64.13,16.56z"/>
		<path class="st0" d="M99.77,21.41c-0.36-3.48-0.48-6.86-0.61-10.25c-0.08-2.01-0.04-4.03,0.11-6.04c0.07-0.98,0.37-1.26,1.37-1.29
			c0.32-0.01,0.64,0,0.95,0.05c1.17,0.22,1.43,0.53,1.52,1.72c0.2,2.37-0.21,4.69-0.48,7.02c-0.48,4.1-0.59,8.21-0.18,12.32
			c0.03,0.35,0.06,0.72,0.28,1.01c0.31,0.4,0.02,0.49-0.28,0.54c-0.66,0.12-1.43-0.27-1.74-0.96c-0.23-0.53-0.47-0.95-1.05-1.19
			c-0.44-0.18-0.66-0.67-0.9-1.09c-1.36-2.39-3.06-4.59-4.18-7.12c-0.63-1.42-1.22-2.85-1.85-4.29c0,0.39-0.01,0.78,0,1.17
			c0.07,2.61,0.16,5.23-0.08,7.84c-0.09,0.97,0.01,1.94,0.11,2.91c0.01,0.07-0.01,0.16,0.03,0.21c0.23,0.31,0.37,0.63-0.05,0.89
			c-0.33,0.21-1.05,0.03-1.31-0.31c-0.19-0.26-0.28-0.57-0.36-0.88c-1.21-4.38-1.91-8.83-1.9-13.39c0-1.8-0.08-3.61,0.01-5.41
			c0.05-0.86,0.27-1.07,1.15-1.08c0.28,0,0.54-0.03,0.81-0.17c0.46-0.24,1.03-0.05,1.4,0.42c0.82,1.05,1.35,2.27,1.89,3.48
			c1.85,4.17,3.42,8.44,4.84,12.77C99.4,20.67,99.49,21.03,99.77,21.41z"/>
		<path class="st0" d="M108.38,3.63c0.61,0.11,1.45,0.07,1.89,0.94c0.06,0.12,0.31,0.15,0.47,0.21c3.52,1.27,7.08,2.42,10.56,3.79
			c0.61,0.24,1.22,0.48,1.8,0.77c1.23,0.6,1.44,1.33,0.78,2.54c-0.51,0.94-1.13,1.79-1.79,2.62c-1.76,2.22-3.47,4.46-5.34,6.58
			c-1.03,1.17-2.16,2.23-3.51,3.05c-0.56,0.34-1.07,0.75-1.58,1.15c-0.73,0.57-1.61,0.5-2.12-0.3c-0.7-1.1-1.39-2.21-1.85-3.45
			c-1.1-2.97-1.48-6.06-1.61-9.2c-0.1-2.25-0.08-4.49,0.28-6.71c0.05-0.3-0.12-0.36-0.28-0.48c-0.27-0.21-0.45-0.53-0.06-0.71
			C106.74,4.11,107.38,3.58,108.38,3.63z M111.35,21.92c1.73-2.26,3.65-4.29,5.35-6.5c1.08-1.42,2.27-2.75,3.15-4.32
			c0.4-0.72,0.39-0.77-0.37-1.04c-2.93-1.02-5.87-2.03-8.8-3.06c-0.39-0.14-0.4,0.03-0.39,0.33
			C110.34,12.19,110.61,17.04,111.35,21.92z"/>
		<path class="st0" d="M132.61,3.13c0.89-0.1,1.56,0.27,2.17,0.89c2.23,2.27,4.47,4.52,6.71,6.78c0.31,0.31,0.63,0.62,0.96,0.91
			c0.72,0.64,0.79,1.04,0.3,1.9c-0.53,0.92-1.07,1.83-1.6,2.75c-1.2,2.08-2.35,4.19-3.75,6.15c-0.53,0.74-1.02,1.54-1.9,1.95
			c-0.1,0.05-0.16,0.12-0.19,0.24c-0.17,0.65-0.46,0.83-1.12,0.76c-0.78-0.08-1.46-0.36-2.08-0.84c-1.86-1.42-3.46-3.12-5.1-4.77
			c-0.82-0.83-1.62-1.67-2.35-2.58c-0.75-0.94-0.81-1.85-0.23-2.93c1.74-3.24,3.68-6.35,5.66-9.44c0.17-0.27,0.36-0.52,0.55-0.78
			C131.12,3.41,131.74,3,132.61,3.13z M126.79,15.71c0.01,0.42,0.29,0.65,0.54,0.9c2.07,1.97,4.3,3.78,6.26,5.88
			c0.18,0.2,0.26,0.15,0.36-0.08c0.16-0.39,0.34-0.78,0.54-1.15c1.42-2.67,2.96-5.27,4.32-7.96c0.53-1.04,0.59-0.81-0.21-1.66
			c-1.9-2-3.93-3.86-5.58-6.09c-0.15-0.21-0.23-0.14-0.33,0.04c-0.3,0.54-0.6,1.08-0.9,1.62c-1.4,2.54-2.91,5-4.52,7.42
			C127.04,14.96,126.86,15.32,126.79,15.71z"/>
		<path class="st0" d="M87.49,25.53c-0.57-5.51-0.81-11.04-1.01-16.58c-0.05-1.49-0.17-2.99-0.74-4.41
			c-0.34-0.86-0.98-1.33-1.87-1.46c-1.51-0.22-2.71,0.23-3.55,1.57c-1.5,2.38-2.5,4.97-3.28,7.65c-0.93,3.19-1.65,6.42-1.79,9.76
			c0,0.4-0.02,0.8,0,1.2c0.07,1.16,0.19,2.31,0.67,3.38c0.3,0.67,0.61,0.84,1.34,0.81c0.23-0.01,0.89-1.19,0.89-2.53
			c0-4.06,0.81-7.98,1.93-11.86c0.66-2.3,1.44-4.55,2.53-6.69c0.09-0.17,0.18-0.33,0.34-0.62c0.31,1.1,0.39,2.1,0.44,3.1
			c0.17,2.86,0.17,5.72,0.36,8.58c0.19,2.82,0.52,5.62,1.27,8.36c0.13,0.49,1.18,1.85,1.57,1.9c0.58,0.07,0.94-0.36,0.95-0.96
			C87.55,26.32,87.53,25.92,87.49,25.53z"/>
		<path class="st0" d="M84.34,13.96c-0.08,0.03-0.18,0.05-0.32,0.07c-1.7,0.2-3.39,0.43-5.09,0.09c-0.52-0.1-0.83-0.17-1.02-0.29
			c-0.12,0.43-0.29,0.84-0.53,1.21c0,0,0.01,0,0.01,0c1.9,0.73,3.87,0.62,5.84,0.48c0.72-0.05,1.43-0.23,2.16-0.27
			C84.95,14.9,84.6,14.45,84.34,13.96z"/>
	</g>
</g>
</svg>
