<svg width="24" height="24" viewBox="0 0 24 24" fill="none" xmlns="http://www.w3.org/2000/svg">
<path d="M4.61565 16.5351C5.16344 16.78 5.70707 17.0497 6.27561 17.2655C7.12986 17.6568 8.01911 17.9667 8.93156 18.1909C11.6166 18.6682 13.5338 16.5974 12.9611 13.9373C12.7058 12.8265 12.136 11.8128 11.3199 11.0173C10.5037 10.2217 9.47577 9.67806 8.35887 9.45119C6.28391 9.0362 4.03466 10.4928 3.47442 12.6923L4.58244 12.9911C5.27133 12.3229 5.76517 11.6133 6.44161 11.2398C7.68658 10.5551 8.93156 10.9203 9.95244 11.8208C11.0605 12.7836 11.712 13.9787 11.4298 15.4893C11.3852 15.7091 11.2951 15.9171 11.1654 16.1C11.0357 16.283 10.8692 16.4368 10.6766 16.5517C10.484 16.6665 10.2695 16.7399 10.0469 16.7671C9.8243 16.7942 9.59848 16.7746 9.3839 16.7094C8.39768 16.4272 7.42788 16.0906 6.47896 15.701C5.83913 15.4128 5.17173 15.1904 4.487 15.037C3.43292 14.8959 2.76478 15.701 2.95152 16.7509C2.99491 17.0725 3.10365 17.3818 3.27106 17.6597C5.43317 20.9257 8.37547 22.9924 12.4009 22.9716C17.7045 22.9384 21.3689 18.8715 21.0618 13.5804C20.8584 10.1027 19.2441 5.42162 17.4472 3.16406L16.4595 3.77826C17.3434 6.01091 18.273 8.09832 18.991 10.2604C19.6338 12.0783 19.7644 14.0379 19.3686 15.9251C19.1542 16.8764 18.7485 17.7742 18.1763 18.5638C17.604 19.3535 16.8772 20.0185 16.0399 20.5185C15.2026 21.0184 14.2724 21.3429 13.3058 21.4721C12.3392 21.6013 11.3564 21.5326 10.4172 21.2702C8.29663 20.6898 6.42305 19.434 5.08044 17.6929C4.8578 17.3735 4.65943 17.0378 4.487 16.6887L4.61565 16.5351Z" fill="white"/>
<path d="M4.94757 3.84443C4.96832 4.29263 4.98907 4.74082 5.00982 5.20976C9.83617 5.42971 12.8117 7.80347 13.9487 12.5427L15.285 12.331C15.1232 8.21431 10.6496 3.34229 4.94757 3.84443Z" fill="white"/>
<path d="M10.9857 1.08008L10.1558 2.32505C13.5086 4.61312 15.8301 8.12512 16.6213 12.1064L18.1194 11.928C17.7095 9.73694 16.8677 7.6494 15.6429 5.78699C14.4182 3.92457 12.8351 2.32453 10.9857 1.08008Z" fill="white"/>
</svg>
