<svg width="24" height="24" viewBox="0 0 24 24" fill="none" xmlns="http://www.w3.org/2000/svg">
<g clip-path="url(#clip0_3572_29731)">
<path d="M1.00805 11.9928C1.00805 10.3597 0.999802 8.72653 1.01115 7.09392C1.01836 6.04196 1.22409 5.02609 1.70103 4.08138C2.58066 2.33894 4.05685 1.43033 5.93624 1.1168C6.36824 1.04479 6.80536 1.00788 7.24331 1.00645C10.4401 0.997851 13.6369 0.997851 16.8336 1.00645C17.9205 1.00645 18.9698 1.21271 19.9443 1.71291C21.6644 2.58955 22.5651 4.05715 22.875 5.91665C22.9567 6.44258 22.996 6.97423 22.9926 7.50646C23.0034 10.5066 22.9926 13.5063 22.9993 16.5059C22.9993 17.5734 22.8714 18.6166 22.4445 19.6025C21.6128 21.5218 20.0907 22.5393 18.0768 22.8811C17.6278 22.9564 17.1734 22.9942 16.7181 22.9941C13.5131 23.0023 10.3081 23.0023 7.10306 22.9941C5.85426 22.9884 4.66475 22.7063 3.59692 22.0303C2.14497 21.1098 1.38908 19.7361 1.122 18.0746C1.04386 17.5393 1.00509 16.9989 1.00599 16.458C0.991035 14.9713 1.00083 13.4841 1.00083 11.9969L1.00805 11.9928ZM15.2389 9.37421C16.1752 9.37421 17.111 9.37421 18.0474 9.37421C18.5738 9.37421 18.9445 9.02974 18.943 8.55224C18.9414 8.07473 18.565 7.72716 18.0438 7.72716C16.1711 7.72373 14.2987 7.72373 12.4267 7.72716C11.8864 7.72716 11.5151 8.08143 11.5223 8.57028C11.5296 9.04831 11.8956 9.37524 12.4303 9.37576C13.3667 9.3761 14.3029 9.37559 15.2389 9.37421ZM15.2512 15.4328C14.5644 15.4328 13.8771 15.4328 13.1888 15.4328C12.8712 15.4328 12.552 15.424 12.2365 15.4493C11.8946 15.4766 11.6647 15.686 11.562 16.0042C11.4553 16.3332 11.5172 16.658 11.8049 16.8607C11.9921 16.991 12.2127 17.0649 12.4406 17.0737C14.3041 17.0897 16.168 17.083 18.0314 17.0819C18.1086 17.0822 18.1857 17.076 18.2619 17.0634C18.4192 17.0367 18.5652 16.9641 18.6814 16.8548C18.7976 16.7454 18.879 16.6041 18.9151 16.4487C19.0415 15.9041 18.6573 15.4411 18.0582 15.4354C17.1224 15.4266 16.1865 15.4333 15.2512 15.4328ZM6.76276 8.25624C6.62148 8.12165 6.54827 8.04997 6.47351 7.98087C6.11258 7.65033 5.6212 7.65085 5.29379 7.98087C4.96638 8.3109 4.96896 8.79563 5.31854 9.1566C5.56964 9.41443 5.82693 9.66866 6.08319 9.92237C6.46526 10.3004 6.93549 10.3143 7.31601 9.93887C8.12964 9.13649 8.93743 8.32861 9.73937 7.51522C10.0828 7.16818 10.089 6.6556 9.77495 6.33486C9.44341 5.99709 8.93708 5.99658 8.57719 6.34981C8.0193 6.89745 7.46863 7.45283 6.91951 8.00872C6.85454 8.07369 6.81845 8.16548 6.76276 8.25624ZM6.68129 15.9531C6.61925 15.8589 6.55031 15.7695 6.47505 15.6855C6.12237 15.3549 5.61759 15.3575 5.29379 15.6855C4.96122 16.0222 4.96948 16.4966 5.32061 16.8581C5.57807 17.1232 5.83914 17.3844 6.10381 17.6419C6.4601 17.9921 6.93859 17.9993 7.29951 17.6574C7.49905 17.4687 7.68931 17.2696 7.88369 17.0752C8.50242 16.4564 9.12786 15.8376 9.73989 15.2142C10.1998 14.7449 10.0266 13.9977 9.42176 13.827C9.0897 13.7332 8.79993 13.8193 8.55296 14.0709C7.95124 14.6825 7.34282 15.2884 6.68129 15.9531Z" fill="white"/>
</g>
<defs>
<clipPath id="clip0_3572_29731">
<rect width="22" height="22" fill="white" transform="translate(1 1)"/>
</clipPath>
</defs>
</svg>
